<mxfile host="Electron" agent="Mozilla/5.0 (Windows NT 10.0; Win64; x64) AppleWebKit/537.36 (KHTML, like Gecko) draw.io/26.0.16 Chrome/132.0.6834.196 Electron/34.2.0 Safari/537.36" version="26.0.16">
  <diagram name="Page-1" id="oHeXKfy84pKHUZ1Dhw0S">
    <mxGraphModel dx="1430" dy="825" grid="1" gridSize="10" guides="1" tooltips="1" connect="1" arrows="1" fold="1" page="1" pageScale="1" pageWidth="1169" pageHeight="827" math="0" shadow="0">
      <root>
        <mxCell id="0" />
        <mxCell id="1" parent="0" />
        <mxCell id="IEt8cJ1j1EI7TW5e2nKS-41" value="" style="rounded=1;whiteSpace=wrap;html=1;fillColor=none;dashed=1;" vertex="1" parent="1">
          <mxGeometry x="20" y="110" width="660" height="470" as="geometry" />
        </mxCell>
        <mxCell id="IEt8cJ1j1EI7TW5e2nKS-44" value="" style="rounded=1;whiteSpace=wrap;html=1;fillColor=none;dashed=1;" vertex="1" parent="1">
          <mxGeometry x="710" y="110" width="440" height="470" as="geometry" />
        </mxCell>
        <mxCell id="IEt8cJ1j1EI7TW5e2nKS-1" value="&lt;b&gt;&lt;font style=&quot;font-size: 20px;&quot;&gt;Integration Model&lt;/font&gt;&lt;/b&gt;" style="text;html=1;align=center;verticalAlign=middle;whiteSpace=wrap;rounded=0;" vertex="1" parent="1">
          <mxGeometry x="10" y="10" width="200" height="30" as="geometry" />
        </mxCell>
        <mxCell id="IEt8cJ1j1EI7TW5e2nKS-2" value="&lt;font style=&quot;font-size: 10px;&quot;&gt;(how the tables are related)&lt;/font&gt;" style="text;html=1;align=center;verticalAlign=middle;whiteSpace=wrap;rounded=0;" vertex="1" parent="1">
          <mxGeometry x="192" y="13" width="130" height="30" as="geometry" />
        </mxCell>
        <mxCell id="IEt8cJ1j1EI7TW5e2nKS-3" value="crm_cust_info" style="swimlane;fontStyle=0;childLayout=stackLayout;horizontal=1;startSize=40;horizontalStack=0;resizeParent=1;resizeParentMax=0;resizeLast=0;collapsible=1;marginBottom=0;whiteSpace=wrap;html=1;rounded=1;fillColor=#dae8fc;strokeColor=#6c8ebf;fontSize=26;" vertex="1" parent="1">
          <mxGeometry x="400" y="344" width="250" height="140" as="geometry">
            <mxRectangle x="290" y="150" width="200" height="40" as="alternateBounds" />
          </mxGeometry>
        </mxCell>
        <mxCell id="IEt8cJ1j1EI7TW5e2nKS-4" value="cst_id" style="text;strokeColor=none;fillColor=none;align=left;verticalAlign=middle;spacingLeft=4;spacingRight=4;overflow=hidden;points=[[0,0.5],[1,0.5]];portConstraint=eastwest;rotatable=0;whiteSpace=wrap;html=1;fontSize=26;" vertex="1" parent="IEt8cJ1j1EI7TW5e2nKS-3">
          <mxGeometry y="40" width="250" height="40" as="geometry" />
        </mxCell>
        <mxCell id="IEt8cJ1j1EI7TW5e2nKS-26" value="cst_key" style="text;strokeColor=none;fillColor=none;align=left;verticalAlign=middle;spacingLeft=4;spacingRight=4;overflow=hidden;points=[[0,0.5],[1,0.5]];portConstraint=eastwest;rotatable=0;whiteSpace=wrap;html=1;fontSize=26;" vertex="1" parent="IEt8cJ1j1EI7TW5e2nKS-3">
          <mxGeometry y="80" width="250" height="60" as="geometry" />
        </mxCell>
        <mxCell id="IEt8cJ1j1EI7TW5e2nKS-7" value="&lt;font style=&quot;font-size: 16px;&quot;&gt;Customer Information&lt;/font&gt;" style="text;html=1;align=center;verticalAlign=middle;whiteSpace=wrap;rounded=0;" vertex="1" parent="1">
          <mxGeometry x="440" y="320" width="170" height="30" as="geometry" />
        </mxCell>
        <mxCell id="IEt8cJ1j1EI7TW5e2nKS-9" value="crm_prd_info" style="swimlane;fontStyle=0;childLayout=stackLayout;horizontal=1;startSize=40;horizontalStack=0;resizeParent=1;resizeParentMax=0;resizeLast=0;collapsible=1;marginBottom=0;whiteSpace=wrap;html=1;rounded=1;fillColor=#dae8fc;strokeColor=#6c8ebf;fontSize=26;" vertex="1" parent="1">
          <mxGeometry x="400" y="154" width="250" height="100" as="geometry">
            <mxRectangle x="290" y="150" width="200" height="40" as="alternateBounds" />
          </mxGeometry>
        </mxCell>
        <mxCell id="IEt8cJ1j1EI7TW5e2nKS-10" value="prd_key" style="text;strokeColor=none;fillColor=none;align=left;verticalAlign=middle;spacingLeft=4;spacingRight=4;overflow=hidden;points=[[0,0.5],[1,0.5]];portConstraint=eastwest;rotatable=0;whiteSpace=wrap;html=1;fontSize=26;" vertex="1" parent="IEt8cJ1j1EI7TW5e2nKS-9">
          <mxGeometry y="40" width="250" height="60" as="geometry" />
        </mxCell>
        <mxCell id="IEt8cJ1j1EI7TW5e2nKS-11" value="&lt;span style=&quot;font-size: 16px;&quot;&gt;Current &amp;amp; History Product Information&lt;/span&gt;" style="text;html=1;align=center;verticalAlign=middle;whiteSpace=wrap;rounded=0;" vertex="1" parent="1">
          <mxGeometry x="387.5" y="130" width="275" height="30" as="geometry" />
        </mxCell>
        <mxCell id="IEt8cJ1j1EI7TW5e2nKS-15" value="crm_sales_details" style="swimlane;fontStyle=0;childLayout=stackLayout;horizontal=1;startSize=40;horizontalStack=0;resizeParent=1;resizeParentMax=0;resizeLast=0;collapsible=1;marginBottom=0;whiteSpace=wrap;html=1;rounded=1;fillColor=#dae8fc;strokeColor=#6c8ebf;fontSize=26;" vertex="1" parent="1">
          <mxGeometry x="40" y="223" width="250" height="140" as="geometry">
            <mxRectangle x="290" y="150" width="200" height="40" as="alternateBounds" />
          </mxGeometry>
        </mxCell>
        <mxCell id="IEt8cJ1j1EI7TW5e2nKS-16" value="prd_key" style="text;strokeColor=none;fillColor=none;align=left;verticalAlign=middle;spacingLeft=4;spacingRight=4;overflow=hidden;points=[[0,0.5],[1,0.5]];portConstraint=eastwest;rotatable=0;whiteSpace=wrap;html=1;fontSize=26;" vertex="1" parent="IEt8cJ1j1EI7TW5e2nKS-15">
          <mxGeometry y="40" width="250" height="40" as="geometry" />
        </mxCell>
        <mxCell id="IEt8cJ1j1EI7TW5e2nKS-18" value="cst_id" style="text;strokeColor=none;fillColor=none;align=left;verticalAlign=middle;spacingLeft=4;spacingRight=4;overflow=hidden;points=[[0,0.5],[1,0.5]];portConstraint=eastwest;rotatable=0;whiteSpace=wrap;html=1;fontSize=26;" vertex="1" parent="IEt8cJ1j1EI7TW5e2nKS-15">
          <mxGeometry y="80" width="250" height="60" as="geometry" />
        </mxCell>
        <mxCell id="IEt8cJ1j1EI7TW5e2nKS-17" value="&lt;span style=&quot;font-size: 16px;&quot;&gt;Transactional Records about Sales &amp;amp; Orders&lt;/span&gt;" style="text;html=1;align=center;verticalAlign=middle;whiteSpace=wrap;rounded=0;" vertex="1" parent="1">
          <mxGeometry x="41.25" y="190" width="247.5" height="30" as="geometry" />
        </mxCell>
        <mxCell id="IEt8cJ1j1EI7TW5e2nKS-20" style="edgeStyle=orthogonalEdgeStyle;rounded=0;orthogonalLoop=1;jettySize=auto;html=1;exitX=1;exitY=0.5;exitDx=0;exitDy=0;entryX=0;entryY=0.5;entryDx=0;entryDy=0;" edge="1" parent="1" source="IEt8cJ1j1EI7TW5e2nKS-18" target="IEt8cJ1j1EI7TW5e2nKS-4">
          <mxGeometry relative="1" as="geometry" />
        </mxCell>
        <mxCell id="IEt8cJ1j1EI7TW5e2nKS-22" style="edgeStyle=orthogonalEdgeStyle;rounded=0;orthogonalLoop=1;jettySize=auto;html=1;exitX=1;exitY=0.5;exitDx=0;exitDy=0;entryX=0;entryY=0.5;entryDx=0;entryDy=0;" edge="1" parent="1" source="IEt8cJ1j1EI7TW5e2nKS-16" target="IEt8cJ1j1EI7TW5e2nKS-10">
          <mxGeometry relative="1" as="geometry" />
        </mxCell>
        <mxCell id="IEt8cJ1j1EI7TW5e2nKS-23" value="erp_cust_az12" style="swimlane;fontStyle=0;childLayout=stackLayout;horizontal=1;startSize=40;horizontalStack=0;resizeParent=1;resizeParentMax=0;resizeLast=0;collapsible=1;marginBottom=0;whiteSpace=wrap;html=1;rounded=1;fillColor=#fff2cc;strokeColor=#d6b656;fontSize=26;" vertex="1" parent="1">
          <mxGeometry x="822.5" y="312.5" width="250" height="90" as="geometry">
            <mxRectangle x="290" y="150" width="200" height="40" as="alternateBounds" />
          </mxGeometry>
        </mxCell>
        <mxCell id="IEt8cJ1j1EI7TW5e2nKS-24" value="cid" style="text;strokeColor=none;fillColor=none;align=left;verticalAlign=middle;spacingLeft=4;spacingRight=4;overflow=hidden;points=[[0,0.5],[1,0.5]];portConstraint=eastwest;rotatable=0;whiteSpace=wrap;html=1;fontSize=26;" vertex="1" parent="IEt8cJ1j1EI7TW5e2nKS-23">
          <mxGeometry y="40" width="250" height="50" as="geometry" />
        </mxCell>
        <mxCell id="IEt8cJ1j1EI7TW5e2nKS-25" value="&lt;span style=&quot;font-size: 16px;&quot;&gt;Extra Customer Information (Birthdate)&lt;/span&gt;" style="text;html=1;align=center;verticalAlign=middle;whiteSpace=wrap;rounded=0;" vertex="1" parent="1">
          <mxGeometry x="810" y="286.5" width="290" height="30" as="geometry" />
        </mxCell>
        <mxCell id="IEt8cJ1j1EI7TW5e2nKS-27" style="edgeStyle=orthogonalEdgeStyle;rounded=0;orthogonalLoop=1;jettySize=auto;html=1;exitX=0;exitY=0.5;exitDx=0;exitDy=0;entryX=1;entryY=0.5;entryDx=0;entryDy=0;" edge="1" parent="1" source="IEt8cJ1j1EI7TW5e2nKS-24" target="IEt8cJ1j1EI7TW5e2nKS-26">
          <mxGeometry relative="1" as="geometry" />
        </mxCell>
        <mxCell id="IEt8cJ1j1EI7TW5e2nKS-31" value="erp_loc_a101" style="swimlane;fontStyle=0;childLayout=stackLayout;horizontal=1;startSize=40;horizontalStack=0;resizeParent=1;resizeParentMax=0;resizeLast=0;collapsible=1;marginBottom=0;whiteSpace=wrap;html=1;rounded=1;fillColor=#fff2cc;strokeColor=#d6b656;fontSize=26;" vertex="1" parent="1">
          <mxGeometry x="822.5" y="462.5" width="250" height="90" as="geometry">
            <mxRectangle x="290" y="150" width="200" height="40" as="alternateBounds" />
          </mxGeometry>
        </mxCell>
        <mxCell id="IEt8cJ1j1EI7TW5e2nKS-32" value="cid" style="text;strokeColor=none;fillColor=none;align=left;verticalAlign=middle;spacingLeft=4;spacingRight=4;overflow=hidden;points=[[0,0.5],[1,0.5]];portConstraint=eastwest;rotatable=0;whiteSpace=wrap;html=1;fontSize=26;" vertex="1" parent="IEt8cJ1j1EI7TW5e2nKS-31">
          <mxGeometry y="40" width="250" height="50" as="geometry" />
        </mxCell>
        <mxCell id="IEt8cJ1j1EI7TW5e2nKS-33" value="&lt;span style=&quot;font-size: 16px;&quot;&gt;Location of Customers (Country)&lt;/span&gt;" style="text;html=1;align=center;verticalAlign=middle;whiteSpace=wrap;rounded=0;" vertex="1" parent="1">
          <mxGeometry x="810" y="436.5" width="290" height="30" as="geometry" />
        </mxCell>
        <mxCell id="IEt8cJ1j1EI7TW5e2nKS-34" style="edgeStyle=orthogonalEdgeStyle;rounded=0;orthogonalLoop=1;jettySize=auto;html=1;exitX=0;exitY=0.5;exitDx=0;exitDy=0;" edge="1" parent="1" source="IEt8cJ1j1EI7TW5e2nKS-32" target="IEt8cJ1j1EI7TW5e2nKS-26">
          <mxGeometry relative="1" as="geometry" />
        </mxCell>
        <mxCell id="IEt8cJ1j1EI7TW5e2nKS-35" value="erp_px_cat_g1v2" style="swimlane;fontStyle=0;childLayout=stackLayout;horizontal=1;startSize=40;horizontalStack=0;resizeParent=1;resizeParentMax=0;resizeLast=0;collapsible=1;marginBottom=0;whiteSpace=wrap;html=1;rounded=1;fillColor=#fff2cc;strokeColor=#d6b656;fontSize=26;" vertex="1" parent="1">
          <mxGeometry x="822.5" y="154" width="250" height="100" as="geometry">
            <mxRectangle x="290" y="150" width="200" height="40" as="alternateBounds" />
          </mxGeometry>
        </mxCell>
        <mxCell id="IEt8cJ1j1EI7TW5e2nKS-36" value="id" style="text;strokeColor=none;fillColor=none;align=left;verticalAlign=middle;spacingLeft=4;spacingRight=4;overflow=hidden;points=[[0,0.5],[1,0.5]];portConstraint=eastwest;rotatable=0;whiteSpace=wrap;html=1;fontSize=26;" vertex="1" parent="IEt8cJ1j1EI7TW5e2nKS-35">
          <mxGeometry y="40" width="250" height="60" as="geometry" />
        </mxCell>
        <mxCell id="IEt8cJ1j1EI7TW5e2nKS-37" value="&lt;span style=&quot;font-size: 16px;&quot;&gt;Product Categories&lt;/span&gt;" style="text;html=1;align=center;verticalAlign=middle;whiteSpace=wrap;rounded=0;" vertex="1" parent="1">
          <mxGeometry x="802.5" y="129" width="290" height="30" as="geometry" />
        </mxCell>
        <mxCell id="IEt8cJ1j1EI7TW5e2nKS-40" style="edgeStyle=orthogonalEdgeStyle;rounded=0;orthogonalLoop=1;jettySize=auto;html=1;exitX=0;exitY=0.5;exitDx=0;exitDy=0;entryX=1;entryY=0.5;entryDx=0;entryDy=0;" edge="1" parent="1" source="IEt8cJ1j1EI7TW5e2nKS-36" target="IEt8cJ1j1EI7TW5e2nKS-10">
          <mxGeometry relative="1" as="geometry" />
        </mxCell>
        <mxCell id="IEt8cJ1j1EI7TW5e2nKS-42" value="&lt;b&gt;&lt;font style=&quot;font-size: 28px;&quot;&gt;CRM&lt;/font&gt;&lt;/b&gt;" style="rounded=1;whiteSpace=wrap;html=1;fillColor=#dae8fc;strokeColor=#6c8ebf;" vertex="1" parent="1">
          <mxGeometry x="270" y="86" width="160" height="40" as="geometry" />
        </mxCell>
        <mxCell id="IEt8cJ1j1EI7TW5e2nKS-45" value="&lt;b&gt;&lt;font style=&quot;font-size: 28px;&quot;&gt;ERP&lt;/font&gt;&lt;/b&gt;" style="rounded=1;whiteSpace=wrap;html=1;fillColor=#fff2cc;strokeColor=#d6b656;" vertex="1" parent="1">
          <mxGeometry x="850" y="86" width="160" height="40" as="geometry" />
        </mxCell>
        <mxCell id="IEt8cJ1j1EI7TW5e2nKS-46" value="&lt;font style=&quot;font-size: 18px;&quot;&gt;&lt;b&gt;PRODUCT&lt;/b&gt;&lt;/font&gt;" style="text;html=1;strokeColor=#b85450;fillColor=#f8cecc;align=center;verticalAlign=middle;whiteSpace=wrap;overflow=hidden;" vertex="1" parent="1">
          <mxGeometry x="400" y="240" width="250" height="24" as="geometry" />
        </mxCell>
        <mxCell id="IEt8cJ1j1EI7TW5e2nKS-47" value="&lt;font style=&quot;font-size: 18px;&quot;&gt;&lt;b&gt;PRODUCT&lt;/b&gt;&lt;/font&gt;" style="text;html=1;strokeColor=#b85450;fillColor=#f8cecc;align=center;verticalAlign=middle;whiteSpace=wrap;overflow=hidden;" vertex="1" parent="1">
          <mxGeometry x="822.5" y="239.5" width="250" height="24" as="geometry" />
        </mxCell>
        <mxCell id="IEt8cJ1j1EI7TW5e2nKS-49" value="&lt;font style=&quot;font-size: 18px;&quot;&gt;&lt;b&gt;CUSTOMER&lt;/b&gt;&lt;/font&gt;" style="text;html=1;strokeColor=#82b366;fillColor=#d5e8d4;align=center;verticalAlign=middle;whiteSpace=wrap;overflow=hidden;" vertex="1" parent="1">
          <mxGeometry x="400" y="470" width="250" height="24" as="geometry" />
        </mxCell>
        <mxCell id="IEt8cJ1j1EI7TW5e2nKS-50" value="&lt;font style=&quot;font-size: 18px;&quot;&gt;&lt;b&gt;CUSTOMER&lt;/b&gt;&lt;/font&gt;" style="text;html=1;strokeColor=#82b366;fillColor=#d5e8d4;align=center;verticalAlign=middle;whiteSpace=wrap;overflow=hidden;" vertex="1" parent="1">
          <mxGeometry x="822.5" y="540" width="250" height="24" as="geometry" />
        </mxCell>
        <mxCell id="IEt8cJ1j1EI7TW5e2nKS-51" value="&lt;font style=&quot;font-size: 18px;&quot;&gt;&lt;b&gt;CUSTOMER&lt;/b&gt;&lt;/font&gt;" style="text;html=1;strokeColor=#82b366;fillColor=#d5e8d4;align=center;verticalAlign=middle;whiteSpace=wrap;overflow=hidden;" vertex="1" parent="1">
          <mxGeometry x="822.5" y="390" width="250" height="24" as="geometry" />
        </mxCell>
        <mxCell id="IEt8cJ1j1EI7TW5e2nKS-52" value="&lt;font style=&quot;font-size: 18px;&quot;&gt;&lt;b&gt;SALES&lt;/b&gt;&lt;/font&gt;" style="text;html=1;strokeColor=#9673a6;fillColor=#e1d5e7;align=center;verticalAlign=middle;whiteSpace=wrap;overflow=hidden;" vertex="1" parent="1">
          <mxGeometry x="40.25" y="350" width="250" height="24" as="geometry" />
        </mxCell>
      </root>
    </mxGraphModel>
  </diagram>
</mxfile>
